<svg width="115" height="63" fill="none" xmlns="http://www.w3.org/2000/svg"><path fill="url(#paint0_linear)" d="M12.535.439h89.85v62.11h-89.85z"/><mask id="mask0" maskUnits="userSpaceOnUse" x="12" y="0" width="91" height="63"><path fill="#C4C4C4" d="M12.535.439h89.85v62.11h-89.85z"/></mask><g mask="url(#mask0)"><path d="M16.787-1.142h61.181L64.14 22.869H2.958L16.787-1.142z" fill="#000" fill-opacity=".07"/><path fill="url(#paint1_linear)" d="M73.637.439h89.85v62.11h-89.85z"/></g><path d="M12.456.44h61.182L61.819 20.161H.637L12.456.439z" fill="url(#paint2_linear)"/><mask id="mask1" maskUnits="userSpaceOnUse" x="73" y="0" width="30" height="63"><path fill="#C4C4C4" d="M73.638.439h28.748v62.11H73.638z"/></mask><g mask="url(#mask1)"><path d="M98.886.336H70.093l13.53 22.707h28.792L98.885.336z" fill="#000" fill-opacity=".07"/></g><path d="M102.431.44H73.638l11.818 19.722h28.793L102.431.439z" fill="url(#paint3_linear)"/><defs><linearGradient id="paint0_linear" x1="42.549" y1="-11.06" x2="6.739" y2="87.572" gradientUnits="userSpaceOnUse"><stop stop-color="#FFD481"/><stop offset="1" stop-color="#FA620C"/></linearGradient><linearGradient id="paint1_linear" x1="27.865" y1="-3.5" x2="136.545" y2="112.639" gradientUnits="userSpaceOnUse"><stop stop-color="#FFD481"/><stop offset=".833" stop-color="#FA620C"/></linearGradient><linearGradient id="paint2_linear" x1="13.715" y1="-6.61" x2="10.807" y2="35.413" gradientUnits="userSpaceOnUse"><stop stop-color="#FFD481"/><stop offset="1" stop-color="#FA620C"/></linearGradient><linearGradient id="paint3_linear" x1="106.974" y1="-6.61" x2="112.145" y2="34.971" gradientUnits="userSpaceOnUse"><stop stop-color="#FFD481"/><stop offset="1" stop-color="#FA620C"/></linearGradient></defs></svg>