<svg width="480" height="236" fill="none" xmlns="http://www.w3.org/2000/svg"><path fill-rule="evenodd" clip-rule="evenodd" d="M131.238 170.252c.2-3.408.879-6.262 1.446-7.848a26.688 26.688 0 011.848 7.888c2.436.186 5.107.736 7.888 1.849-1.586.567-4.439 1.246-7.848 1.445-.19 3.619-1.12 6.431-1.888 7.871-.935-2.617-1.362-5.308-1.473-7.844-2.535-.111-5.227-.537-7.844-1.472 1.441-.768 4.252-1.699 7.871-1.889z" fill="url(#paint0_linear)"/><path fill-rule="evenodd" clip-rule="evenodd" d="M104.351 147.826c.132-2.269.585-4.169.962-5.224a17.766 17.766 0 011.23 5.25c1.621.124 3.399.49 5.251 1.231-1.056.377-2.955.829-5.224.962-.127 2.409-.746 4.28-1.257 5.239-.622-1.742-.906-3.534-.98-5.221-1.688-.074-3.48-.358-5.221-.98.958-.511 2.83-1.131 5.239-1.257z" fill="url(#paint1_linear)"/><path fill-rule="evenodd" clip-rule="evenodd" d="M61.027 131.848c.2-3.409.88-6.262 1.446-7.848a26.66 26.66 0 011.849 7.888 26.66 26.66 0 017.888 1.849c-1.586.566-4.44 1.246-7.848 1.445-.19 3.619-1.121 6.431-1.89 7.871-.934-2.617-1.36-5.309-1.472-7.844-2.535-.111-5.227-.538-7.843-1.472 1.44-.768 4.252-1.699 7.87-1.889z" fill="url(#paint2_linear)"/><path fill-rule="evenodd" clip-rule="evenodd" d="M64.736 210.189c.294-5.015 1.293-9.213 2.127-11.547a39.225 39.225 0 012.72 11.606 39.211 39.211 0 0111.605 2.72c-2.333.833-6.531 1.833-11.546 2.126-.28 5.324-1.65 9.461-2.78 11.58-1.374-3.85-2.002-7.81-2.165-11.54-3.73-.164-7.69-.791-11.54-2.166 2.118-1.13 6.255-2.5 11.58-2.779z" fill="url(#paint3_linear)"/><circle cx="95.205" cy="180.534" r="1.841" fill="#2F235A"/><circle cx="137.463" cy="127.737" r="1.841" fill="#FE9076"/><circle cx="44.843" cy="173.224" r="1.841" fill="#FFA400"/><circle cx="127.37" cy="208.934" r="1.841" fill="#23BB86"/><path d="M132.951 120.052c-4.163-5.718-15.89-17.931-29.494-21.04" stroke="#FE9076" stroke-width="1.603" stroke-linecap="round"/><path d="M37.074 168.288c-6.153-3.487-21.878-9.766-35.551-6.979" stroke="#FFA400" stroke-width="1.603" stroke-linecap="round"/><path d="M121.05 214.283c-3.153 2.782-10.739 10.684-15.858 20.031" stroke="#23BB86" stroke-width="1.603" stroke-linecap="round"/><path fill-rule="evenodd" clip-rule="evenodd" d="M348.588 170.252c-.199-3.408-.879-6.262-1.445-7.848a26.66 26.66 0 00-1.849 7.888 26.647 26.647 0 00-7.888 1.849c1.586.567 4.439 1.246 7.848 1.445.19 3.619 1.12 6.431 1.889 7.871.934-2.617 1.361-5.308 1.472-7.844 2.535-.111 5.227-.537 7.844-1.472-1.44-.768-4.252-1.699-7.871-1.889z" fill="url(#paint4_linear)"/><path fill-rule="evenodd" clip-rule="evenodd" d="M375.476 147.826c-.133-2.269-.585-4.169-.962-5.224a17.739 17.739 0 00-1.231 5.25c-1.621.124-3.399.49-5.251 1.231 1.056.377 2.955.829 5.224.962.127 2.409.746 4.28 1.258 5.239.622-1.742.905-3.534.98-5.221 1.687-.074 3.479-.358 5.221-.98-.959-.511-2.831-1.131-5.239-1.257z" fill="url(#paint5_linear)"/><path fill-rule="evenodd" clip-rule="evenodd" d="M418.799 131.848c-.2-3.409-.879-6.262-1.446-7.848a26.681 26.681 0 00-1.848 7.888 26.66 26.66 0 00-7.889 1.849c1.586.566 4.44 1.246 7.849 1.445.19 3.619 1.12 6.431 1.888 7.871.935-2.617 1.361-5.309 1.473-7.844 2.535-.111 5.227-.538 7.843-1.472-1.44-.768-4.251-1.699-7.87-1.889z" fill="url(#paint6_linear)"/><path fill-rule="evenodd" clip-rule="evenodd" d="M415.09 210.189c-.294-5.015-1.293-9.213-2.127-11.547a39.244 39.244 0 00-2.72 11.606 39.214 39.214 0 00-11.605 2.72c2.333.833 6.531 1.833 11.546 2.126.28 5.324 1.649 9.461 2.779 11.58 1.375-3.85 2.003-7.81 2.166-11.54 3.73-.164 7.69-.791 11.54-2.166-2.118-1.13-6.255-2.5-11.579-2.779z" fill="url(#paint7_linear)"/><circle r="1.841" transform="matrix(-1 0 0 1 384.621 180.534)" fill="#2F235A"/><circle r="1.841" transform="matrix(-1 0 0 1 342.363 127.737)" fill="#FE9076"/><circle r="1.841" transform="matrix(-1 0 0 1 434.983 173.224)" fill="#FFA400"/><circle r="1.841" transform="matrix(-1 0 0 1 352.456 208.934)" fill="#23BB86"/><path d="M346.875 120.052c4.163-5.718 15.89-17.931 29.494-21.04" stroke="#FE9076" stroke-width="1.603" stroke-linecap="round"/><path d="M442.752 168.288c6.153-3.487 21.878-9.766 35.551-6.979" stroke="#FFA400" stroke-width="1.603" stroke-linecap="round"/><path d="M358.776 214.283c3.153 2.782 10.739 10.684 15.858 20.031" stroke="#23BB86" stroke-width="1.603" stroke-linecap="round"/><path d="M269.949 56.55c-2.088-3.225-6.314-1.468-6.314 2.046 0 2.638 5.794 6.765 6.314 7.302.524-.537 6.03-4.664 6.03-7.302 0-3.487-3.938-5.27-6.03-2.045z" fill="#FFBCBC"/><circle cx="269.807" cy="60.376" r="13.8" stroke="#F7F7F7" stroke-width=".65"/><path d="M220.426 37.317c-1.848-2.854-5.588-1.3-5.588 1.81 0 2.336 5.128 5.988 5.588 6.463.464-.475 5.337-4.127 5.337-6.463 0-3.086-3.485-4.664-5.337-1.81z" fill="#FFBCBC"/><circle cx="220.3" cy="40.703" r="12.213" stroke="#F7F7F7" stroke-width=".575"/><path d="M253.109 16.342c-1.264-1.952-3.823-.888-3.823 1.238 0 1.597 3.508 4.096 3.823 4.42.317-.325 3.649-2.823 3.649-4.42 0-2.11-2.383-3.19-3.649-1.238z" fill="#FFBCBC"/><circle cx="253.022" cy="18.658" r="8.353" stroke="#F7F7F7" stroke-width=".393"/><path d="M195.379 5.478c-1.034-1.597-3.127-.727-3.127 1.013 0 1.307 2.869 3.351 3.127 3.617.259-.266 2.986-2.31 2.986-3.617 0-1.727-1.95-2.61-2.986-1.013z" fill="#FFBCBC"/><circle cx="195.308" cy="7.373" r="6.835" stroke="#F7F7F7" stroke-width=".322"/><path d="M190.292 80.364c-2.258-3.488-6.828-1.588-6.828 2.212 0 2.853 6.265 7.316 6.828 7.896.567-.58 6.521-5.043 6.521-7.896 0-3.77-4.259-5.7-6.521-2.212z" fill="#FFBCBC"/><circle cx="190.138" cy="84.5" r="14.923" stroke="#F7F7F7" stroke-width=".703"/><defs><linearGradient id="paint0_linear" x1="132.894" y1="164.432" x2="132.894" y2="182.322" gradientUnits="userSpaceOnUse"><stop stop-color="#FFE89E"/><stop offset="1" stop-color="#FFBF1A"/></linearGradient><linearGradient id="paint1_linear" x1="105.453" y1="143.952" x2="105.453" y2="155.859" gradientUnits="userSpaceOnUse"><stop stop-color="#FFE89E"/><stop offset="1" stop-color="#FFBF1A"/></linearGradient><linearGradient id="paint2_linear" x1="62.683" y1="126.028" x2="62.683" y2="143.917" gradientUnits="userSpaceOnUse"><stop stop-color="#FFE89E"/><stop offset="1" stop-color="#FFBF1A"/></linearGradient><linearGradient id="paint3_linear" x1="67.172" y1="201.626" x2="67.172" y2="227.946" gradientUnits="userSpaceOnUse"><stop stop-color="#FFE89E"/><stop offset="1" stop-color="#FFBF1A"/></linearGradient><linearGradient id="paint4_linear" x1="346.932" y1="164.432" x2="346.932" y2="182.322" gradientUnits="userSpaceOnUse"><stop stop-color="#FFE89E"/><stop offset="1" stop-color="#FFBF1A"/></linearGradient><linearGradient id="paint5_linear" x1="374.373" y1="143.952" x2="374.373" y2="155.859" gradientUnits="userSpaceOnUse"><stop stop-color="#FFE89E"/><stop offset="1" stop-color="#FFBF1A"/></linearGradient><linearGradient id="paint6_linear" x1="417.143" y1="126.028" x2="417.143" y2="143.917" gradientUnits="userSpaceOnUse"><stop stop-color="#FFE89E"/><stop offset="1" stop-color="#FFBF1A"/></linearGradient><linearGradient id="paint7_linear" x1="412.654" y1="201.626" x2="412.654" y2="227.946" gradientUnits="userSpaceOnUse"><stop stop-color="#FFE89E"/><stop offset="1" stop-color="#FFBF1A"/></linearGradient></defs></svg>