<svg width="612" height="383" fill="none" xmlns="http://www.w3.org/2000/svg"><path d="M148.253 224.689c11.207-7.782 52.903-21.8 72.351-27.836h21.843c12.964 3.213 42.088 10.938 54.879 16.123 12.791 5.185 36.11 35.89 45.473 50.15l-10.188 19.507c-25.927 25.582-5.037 48.167 8.791 56.521-20.741 0-29.672-7.778-31.544-11.667 2.074 11.754 3.745 40.619 4.321 53.583H161.641v-23.56h-58.179c-5.362-58.662 30.782-123.093 44.791-132.821z" fill="url(#paint0_linear)"/><ellipse cx="233.172" cy="215.361" rx="25.973" ry="18.508" fill="#CF0606"/><path d="M213.89 213.45c3.372-19.385 2.184-37.322 1.657-43.511.737-5.794 31.397 5.058 46.145 10.853-8.322 4.214-10.578 25.283-10.666 35.291.263 3.293-1.791 10.272-12.115 11.852-17.277 2.002-23.879-8.823-25.021-14.485z" fill="url(#paint1_linear)"/><mask id="mask0" maskUnits="userSpaceOnUse" x="213" y="168" width="49" height="61"><path d="M213.89 213.45c3.372-19.385 2.184-37.322 1.657-43.511.737-5.794 31.397 5.058 46.145 10.853-8.322 4.214-10.578 25.283-10.666 35.291.263 3.293-1.791 10.272-12.115 11.852-17.277 2.002-23.879-8.823-25.021-14.485z" fill="#BABABA"/></mask><g mask="url(#mask0)"><path opacity=".1" d="M256.589 200.902c-20.763-3.24-36.156-21.494-41.258-30.216 11.851-2.445 38.497-5.867 50.277 0 11.781 5.867-1.104 22.589-9.019 30.216z" fill="#000"/></g><path d="M250.264 184.341c34.102-1.483 35.076-48.119 31.301-71.252-61.614-52.224-86.354-11.189-91.021 15.856 5.697 19.083 25.617 56.879 59.72 55.396z" fill="url(#paint2_linear)"/><path d="M206.245 66.475c-9.811-3.093-30.265-4.639-33.592 13.917 0 11.997 28.953 8.957 33.592-13.917z" fill="#30235B"/><path d="M218.058 128.098l13.895 11.934-1.508 6.96-12.96-11.374.573-7.52z" fill="#111"/><path d="M203.929 138.83c11.862 10.049 12.631 25.741 11.532 32.331-3.844-1.03-14.58-7.702-26.771-26.153-19.44-39.704 3.981-69.399 18.122-79.283 37.891-22.035 88.55 12.15 79.695 38.303-8.855 26.153-51.208 20.112-66.927 10.09 3.294 9.885.274 19.632-1.648 23.27-7.413-17.298-28.83-11.12-14.003 1.442z" fill="#30235B"/><path d="M229.321 60.622c25.232-7.248 40.599 5.816 45.129 13.253-5.089-2.74-19.192-6.576-34.895 0-24.829 11.408-30.254 35.734-29.862 46.471l-16.441-1.174v-6.04c1.51-14.483 10.837-45.263 36.069-52.51z" fill="#fff"/><ellipse cx="199.985" cy="135.067" rx="19.298" ry="23.609" fill="#fff"/><ellipse cx="199.985" cy="135.067" rx="19.298" ry="23.609" fill="#fff"/><ellipse cx="199.985" cy="135.067" rx="9.211" ry="11.269" fill="#24C28A"/><path opacity=".5" d="M284.303 131.464c-7.153-2.21-14.856 2.503-17.814 5.136-5.378 5.135 2.777 18.192 12.206 12.177 7.543-4.812 6.882-13.546 5.608-17.313z" fill="#E6FCFF"/><path fill-rule="evenodd" clip-rule="evenodd" d="M263.458 135.05c10.346-9.557 20.157-7.924 23.77-5.912 2.09 5.535 0 21.711-11.538 23.145-9.231 1.147-12.394-5.989-12.822-9.701-1.754-1.417-2.92-.195-3.283.592.303 10.316-7.989 17.293-16.889 15.675-7.119-1.294-10.218-8.408-10.878-11.804h-1.472v-6.035c9.271-9.078 22.079-6.853 27.324-4.606 1.379-1.083 4.434-1.354 5.788-1.354zm20.302-2.938c-7.153-2.211-13.688 1.577-16.646 4.21-5.378 5.135 1.686 17.716 11.555 12.455 5.91-3.15 6.364-12.899 5.091-16.665zm-40.445 6.731c3.905-1.271 11.87-2.121 12.48 4.646.763 8.459-6.934 14.699-13.659 11.371-4.87-2.41-6.864-7.35-6.864-10.47 0-2.496 5.362-4.738 8.043-5.547z" fill="#111"/><path opacity=".5" d="M255.821 143.489c-.61-6.767-8.575-5.917-12.481-4.645-2.68.808-8.042 3.05-8.042 5.546 0 3.12 1.994 8.06 6.864 10.47 6.725 3.328 14.421-2.912 13.659-11.371z" fill="#E6FCFF"/><path d="M103.413 357.585c5.999 26.736 41.626 26.79 58.689 23.475l131.526-19.002c1.695 1.473 5.756 5.355 8.433 9.107 2.677 3.751 5.131 1.114 6.023-.674 3.855 4.177 6.693 2.189 7.63.674 3.32 4.179 6.113 2.72 7.095 1.468 4.604 3.427 5.767.449 5.772-1.468-6.282-13.303-17.552-26.636-22.401-31.64l-32.795 3.002-106.555-10.863c-20.216-14.183-70.916-7.499-63.417 25.921z" fill="url(#paint3_linear)"/><path d="M358.251 317.133c-5.941 19.186-14.131 22.538-17.484 21.816-35.286-23.612-20.134-47.808-8.147-56.954l31.245-64.331c-4.524-3.538-9.564-14.605-9.047-21.584.414-5.583 4.222-5.77 6.074-5.165.517-5.785 4.696-5.601 6.721-4.786 1.758-6.307 6.85-4.954 9.176-3.49.31-8.685 6.333-7.495 9.305-5.815l5.218 14.091c2.132.296 7.076.98 9.799 1.352 3.404.464 7.737 1.083 5.57 5.879-1.732 3.838-10.521 16.969-14.699 23.055-8.768 23.983-27.789 76.745-33.731 95.932z" fill="url(#paint4_linear)"/><path d="M268.31 374.167h68.806a6.904 6.904 0 01-6.903 6.903h-55.001a6.903 6.903 0 01-6.902-6.903z" fill="#B4B4B4"/><path d="M359.053 289.218a3.097 3.097 0 012.859-1.905h116.2c2.21 0 3.709 2.248 2.859 4.288l-36.505 87.563a3.097 3.097 0 01-2.858 1.906H325.407c-2.21 0-3.709-2.249-2.858-4.289l36.504-87.563z" fill="url(#paint5_linear)"/><path d="M166.87 331.633l3.086-24.29m139.808 20.288c-.463-2.851-1.25-9.742-.695-14.497m-.144 5.317l-2.654-5.379m1.715 57.197l-8.618-10.877m16.246 11.415l-13.45-17.455m20.521 19.055l-16.718-24.088m54.921-157.299c.461 2.395 1.963 8.058 4.289 11.546m11.641-19.876c.704 2.472 2.538 8.047 4.238 10.572m-13.536-6.98c.829 2.691 2.889 8.607 4.492 10.744m19.234-6.12l2.564 7.502" stroke="#30235B" stroke-width=".619"/><ellipse cx="405.978" cy="336.423" rx="7.861" ry="11.381" transform="rotate(19.9 405.978 336.423)" fill="#fff"/><path fill="#E0E0E0" d="M609.137 261.004l-58.115 112.254-9.195-4.76 58.115-112.254z"/><rect x="519.833" y="365.446" width="58.443" height="15.623" rx="3.097" fill="#30235B"/><path fill="#E0E0E0" d="M602.449 262.019l-51.833-43.855 6.687-7.905 51.834 43.856zm-50.73-48.366l-19.065 6.148-1.095-3.395 19.065-6.148z"/><circle cx="604.767" cy="257.849" r="7.233" fill="#30235B"/><path d="M547.196 208.427l10.133 1.881-6.696 7.835-3.437-9.716zm-31.562-3.377c2.334-5.863 8.979-8.724 14.842-6.39 5.863 2.334 8.724 8.979 6.39 14.842l-6.454 16.212-21.232-8.452 6.454-16.212z" fill="#30235B"/><path d="M522.366 221.591c-23.563-9.252-39.241 11.474-44.776 22.451 16.361 23.326 46.331 25.722 59.913 24.547 4.773-11.811 8.427-37.746-15.137-46.998z" fill="#30235B"/><path d="M45.992 309.441c-15.162 9.281-19.933.817-20.423-4.574 0-7.843 0-14.378-10.293-25.979-24.835-27.448-16.992-71.235 17.318-74.013 34.311-2.777 24.345 18.953 12.254 33.004-12.066 14.023-4.441 18.282 13.617 28.369l.107.06c23.528 14.214 3.922 26.958-7.679 29.246-11.6 2.287-1.633 9.313-4.901 13.887z" fill="url(#paint6_linear)"/><path d="M196.089 157.483c-5.373-1.128-16.03-8.175-15.068-24.365m90.759-62.461c-2.925-4.342-9.835-10.759-23.765-11.417" stroke="#30235B" stroke-width=".949"/><path d="M80.382 348.499c1.282-14.693-12.297-18.229-20.602-18.229-.999 0-1.851.684-2.14 1.639-.474 1.562.724 3.138 2.351 3.26 7.335.552 17.225 3.672 15.4 13.33-1.77 9.373-9.894 11.139-15.645 10.741-1.584-.109-3.07 1.071-3.07 2.659 0 1.184.837 2.211 2.014 2.334 7.76.814 20.436-1.345 21.692-15.734z" fill="url(#paint7_linear)"/><path d="M59.08 325.094v52.879a3.097 3.097 0 01-3.097 3.097H14.235a3.097 3.097 0 01-3.097-3.097v-52.879a3.097 3.097 0 013.097-3.097h41.748a3.097 3.097 0 013.097 3.097z" fill="url(#paint8_linear)"/><path d="M332.578 281.938l9.591-19.667" stroke="#30235B" stroke-width=".949"/><path d="M252.429 340.283c-3.188 10.761-1.328 22.916 0 27.649l8.865-1.257c-1.848-14.101-.77-22.818 0-25.413l-8.865-.979z" fill="#30235B"/><rect x="248.917" y="335.674" width="16.767" height="4.347" rx="2.173" transform="rotate(6.017 248.917 335.674)" fill="url(#paint9_linear)"/><defs><linearGradient id="paint0_linear" x1="235.261" y1="166.563" x2="222.861" y2="414.901" gradientUnits="userSpaceOnUse"><stop stop-color="#FF9F81"/><stop offset="1" stop-color="#F53838"/></linearGradient><linearGradient id="paint1_linear" x1="235.127" y1="99.344" x2="232.91" y2="209.644" gradientUnits="userSpaceOnUse"><stop stop-color="#FFEFE0"/><stop offset="1" stop-color="#FFBE99"/></linearGradient><linearGradient id="paint2_linear" x1="236.808" y1="87.928" x2="236.808" y2="184.383" gradientUnits="userSpaceOnUse"><stop stop-color="#FFEFE0"/><stop offset="1" stop-color="#FFBE99"/></linearGradient><linearGradient id="paint3_linear" x1="215.622" y1="288.635" x2="215.622" y2="372.501" gradientUnits="userSpaceOnUse"><stop offset=".068" stop-color="#FFEFE0"/><stop offset="1" stop-color="#FFBE99"/></linearGradient><linearGradient id="paint4_linear" x1="332.507" y1="165.546" x2="413.893" y2="260.794" gradientUnits="userSpaceOnUse"><stop stop-color="#FFEFE0"/><stop offset="1" stop-color="#FFBE99"/></linearGradient><linearGradient id="paint5_linear" x1="435.21" y1="216.948" x2="389.565" y2="406.293" gradientUnits="userSpaceOnUse"><stop offset=".017" stop-color="#fff"/><stop offset="1" stop-color="#D7D7D7"/></linearGradient><linearGradient id="paint6_linear" x1="-22.691" y1="321.388" x2="69.622" y2="204.633" gradientUnits="userSpaceOnUse"><stop stop-color="#ECECEC"/><stop offset="1" stop-color="#F5F5F5" stop-opacity="0"/></linearGradient><linearGradient id="paint7_linear" x1="88.513" y1="337.422" x2="56.677" y2="338.121" gradientUnits="userSpaceOnUse"><stop stop-color="#fff"/><stop offset="1" stop-color="#CCC"/></linearGradient><linearGradient id="paint8_linear" x1="35.109" y1="304.164" x2="35.109" y2="399.388" gradientUnits="userSpaceOnUse"><stop stop-color="#fff"/><stop offset="1" stop-color="#CCC"/></linearGradient><linearGradient id="paint9_linear" x1="256.982" y1="334.824" x2="256.87" y2="340.092" gradientUnits="userSpaceOnUse"><stop stop-color="#7F67CE"/><stop offset="1" stop-color="#30235B"/></linearGradient></defs></svg>